<svg width="6" height="6" viewBox="0 0 6 6" fill="none" xmlns="http://www.w3.org/2000/svg">
<path d="M2.91021 1.18971C3.04325 0.780234 3.62255 0.780234 3.75559 1.18971L4.03139 2.03852C4.09089 2.22164 4.26153 2.34562 4.45408 2.34562H5.34657C5.77712 2.34562 5.95613 2.89656 5.60781 3.14963L4.88577 3.67423C4.73 3.7874 4.66482 3.98801 4.72431 4.17113L5.00011 5.01994C5.13316 5.42941 4.6645 5.76991 4.31618 5.51685L3.59414 4.99225C3.43837 4.87908 3.22743 4.87908 3.07166 4.99225L2.34962 5.51685C2.0013 5.76991 1.53264 5.42941 1.66569 5.01994L1.94148 4.17113C2.00098 3.98801 1.9358 3.7874 1.78003 3.67423L1.05799 3.14963C0.709669 2.89656 0.88868 2.34562 1.31922 2.34562H2.21172C2.40426 2.34562 2.57491 2.22164 2.63441 2.03852L2.91021 1.18971Z" fill="#FFC806"/>
</svg>
