<svg width="9" height="6" viewBox="0 0 9 6" fill="none" xmlns="http://www.w3.org/2000/svg">
<path fill-rule="evenodd" clip-rule="evenodd" d="M7.40789 0.333296C7.73426 0.422856 7.9913 0.686743 8.07853 1.02186C8.23704 1.62921 8.23704 2.89646 8.23704 2.89646C8.23704 2.89646 8.23704 4.16366 8.07853 4.77106C7.9913 5.10617 7.73426 5.37006 7.40789 5.45966C6.81641 5.62238 4.44445 5.62238 4.44445 5.62238C4.44445 5.62238 2.07248 5.62238 1.48097 5.45966C1.15459 5.37006 0.897555 5.10617 0.810326 4.77106C0.651855 4.16366 0.651855 2.89646 0.651855 2.89646C0.651855 2.89646 0.651855 1.62921 0.810326 1.02186C0.897555 0.686743 1.15459 0.422856 1.48097 0.333296C2.07248 0.170532 4.44445 0.170532 4.44445 0.170532C4.44445 0.170532 6.81641 0.170532 7.40789 0.333296ZM3.73334 1.82977V4.20014L5.62964 3.015L3.73334 1.82977Z" fill="white"/>
</svg>
